# xmcd
#
# Track frame offsets:
#  150
#  10605
#  20074
#  32568
#  43242
#  56498
#  67707
#  77266
#  87656
#  98008
#  109532
#  118537
#  128400
#  138161
#  148751
#  158059
#  169029
#  178714
#  190568
#  201111
#  211632
#  221466
#  234732
#  248122
#  258085
#  268753
#  278657
#  288695
#  298123
#  307285
#  315943
#  326817
#
# Disc length: 4503 seconds
#
# Revision: 0
# Processed by: cddbd v1.5.2PL0 Copyright (c) Steve Scherf et al.
# Submitted via: AltoMP3_Maker 3.0
#
DISCID=c0119520
DTITLE=Various Artist - RCA Hillbilly, Vol. 3
DYEAR=1900
DGENRE=
TTITLE0=Eddie Marshall - Mobilin' Baby of Mine
TTITLE1=Jack Turner - Nightmare
TTITLE2=Jesse Rogers - Plain Old Lovin'
TTITLE3=Porter Wagoner - Bringing Home the Bacon
TTITLE4=Elton Britt - Cannonball Yodel
TTITLE5=Kenny Lee - Flame of Fire
TTITLE6=Floyd Wilson - False Alarm
TTITLE7=Bobby Williamson - Just Skip It
TTITLE8=Don Winters - One Way Is Bound to Be Right
TTITLE9=Wade Ray - It's All Your Fault
TTITLE10=Eddie Kirk - Country Way
TTITLE11=Hal Lone Pine and Betty Cody - Keep Your Shirt on John
TTITLE12=Redd Stewart - Don't Ever Fall in Love
TTITLE13=Red Garrett - That Is Why I'm Happy
TTITLE14=Jimmie Rodgers Snow - Go Back You Fool
TTITLE15=Dave Rich - I Forgot
TTITLE16=Willis Bros - Flyin' Saucer Baby
TTITLE17=Elton Britt - Nuevo Laredo
TTITLE18=Eddie Hill - Who Wrote That Letter to Old John
TTITLE19=Eddie Marshall - Mine All Mine
TTITLE20=Johnnie and Jack - Tom Cat's Kitten
TTITLE21=Phil Harris - Tennessee Hill-Billy Ghost
TTITLE22=Johnny Tyler - Nothin' Won't Cure These Blues
TTITLE23=Kenny Lee - That's My Baby's Kisses
TTITLE24=Jack Turner - Little Boy Why Do You Weep
TTITLE25=Don Winters - Look What Happened
TTITLE26=Wilf Carter - Huggin' Squeezin' Kissin' Teasin'
TTITLE27=Red Garrett - Long Gone
TTITLE28=Grandpa Jones - The Champion
TTITLE29=Ken Marvin - I Don't Care If You Go a Little Further
TTITLE30=Billy McGhee - Sugar Booger
TTITLE31=Oklahoma Ramblers - Gettin' High Feelin' Low
EXTD=
EXTT0=
EXTT1=
EXTT2=
EXTT3=
EXTT4=
EXTT5=
EXTT6=
EXTT7=
EXTT8=
EXTT9=
EXTT10=
EXTT11=
EXTT12=
EXTT13=
EXTT14=
EXTT15=
EXTT16=
EXTT17=
EXTT18=
EXTT19=
EXTT20=
EXTT21=
EXTT22=
EXTT23=
EXTT24=
EXTT25=
EXTT26=
EXTT27=
EXTT28=
EXTT29=
EXTT30=
EXTT31=
PLAYORDER=
